# xmcd
#
# Track frame offsets:
#	150
#	22367
#	42842
#	61718
#	77642
#	91054
#	111588
#	130789
#	152496
#	172585
#	194727
#	227553
#
# Disc length: 3412 seconds
#
# Revision: 116109069
# Processed by: cddbd v1.5.1PL0 Copyright (c) Steve Scherf et al.
# Submitted via: EasyCDDAExtractor 8.0.2.1
#
DISCID=900d520c
DTITLE=EPMD - Unfinished Business
DYEAR=1989
DGENRE=Hip-Hop
TTITLE0=So Wat Cha Sayin'
TTITLE1=Total Kaos
TTITLE2=Get the Bozack
TTITLE3=Jane II
TTITLE4=Please Listen To My Demo
TTITLE5=It's Time To Party
TTITLE6=Who's Booty?
TTITLE7=The Big Payback
TTITLE8=Strictly Snappin' Necks
TTITLE9=Knick Knack Patty Wack (Featuring K-Solo)
TTITLE10=You Had Too Much To Drink (Featuring Frank B)
TTITLE11=It Wasn't Me, It Was the Fame
EXTD=YEAR: 1989
EXTT0=
EXTT1=
EXTT2=
EXTT3=
EXTT4=
EXTT5=
EXTT6=
EXTT7=
EXTT8=
EXTT9=
EXTT10=
EXTT11=
PLAYORDER=
